<?xml version="1.0" encoding="UTF-8" standalone="no"?>
<!-- Created with Inkscape (http://www.inkscape.org/) -->

<svg
   width="200"
   height="100"
   viewBox="0 0 200 100"
   version="1.1"
   id="svg1"
   inkscape:version="1.3.1 (1:1.3.1+202311172155+91b66b0783)"
   sodipodi:docname="arel-text-to-path.svg"
   xmlns:inkscape="http://www.inkscape.org/namespaces/inkscape"
   xmlns:sodipodi="http://sodipodi.sourceforge.net/DTD/sodipodi-0.dtd"
   xmlns="http://www.w3.org/2000/svg"
   xmlns:svg="http://www.w3.org/2000/svg">
  <sodipodi:namedview
     id="namedview1"
     pagecolor="#ffffff"
     bordercolor="#000000"
     borderopacity="0.25"
     inkscape:showpageshadow="2"
     inkscape:pageopacity="0.0"
     inkscape:pagecheckerboard="0"
     inkscape:deskcolor="#d1d1d1"
     inkscape:document-units="mm"
     inkscape:zoom="2.5398704"
     inkscape:cx="99.0208"
     inkscape:cy="81.500221"
     inkscape:window-width="1366"
     inkscape:window-height="704"
     inkscape:window-x="0"
     inkscape:window-y="0"
     inkscape:window-maximized="1"
     inkscape:current-layer="layer1" />
  <defs
     id="defs1">
    <rect
       x="18.448529"
       y="10.685879"
       width="162.63068"
       height="75.123054"
       id="rect1" />
  </defs>
  <g
     inkscape:label="Layer 1"
     inkscape:groupmode="layer"
     id="layer1">
    <path
       d="M 1.00001,1.00001 V 98.99999 H 199 V 1.00001 Z"
       style="fill:#fa2020;stroke:#ffffff;stroke-width:2;stroke-dasharray:none;fill-opacity:1;stroke-opacity:1"
       id="path1" />
    <path
       d="m 24.150391,18.958984 h -3.574219 l -0.802735,2.226563 h -1.160156 l 3.257813,-8.53125 h 0.984375 l 3.263672,8.53125 h -1.154297 z m -3.234375,-0.925781 h 2.90039 l -1.453125,-3.990234 z m 9.480468,-0.298828 h -2.003906 v 3.451172 h -1.130859 v -8.53125 h 2.824218 q 1.441407,0 2.214844,0.65625 0.779297,0.65625 0.779297,1.910156 0,0.796875 -0.433594,1.388672 -0.427734,0.591797 -1.195312,0.884766 l 2.003906,3.621093 v 0.07031 h -1.207031 z m -2.003906,-0.919922 h 1.728516 q 0.83789,0 1.330078,-0.433594 0.498047,-0.433593 0.498047,-1.160156 0,-0.791015 -0.47461,-1.21289 -0.46875,-0.421875 -1.359375,-0.427735 h -1.722656 z m 11.085938,0.427734 H 35.78125 v 3.023438 h 4.294922 v 0.919922 H 34.65625 v -8.53125 h 5.361328 v 0.925781 H 35.78125 v 2.742188 h 3.697266 z m 3.128906,3.023438 h 4.042969 v 0.919922 h -5.173829 v -8.53125 h 1.13086 z"
       id="text1"
       style="font-size:12px;font-family:Roboto;-inkscape-font-specification:'Roboto, Normal';white-space:pre;fill:#ffffff;stroke:#ffffff;stroke-width:0.835025"
       aria-label="AREL"
       transform="matrix(4.7902729,0,0,4.7902729,-56.315399,-31.051043)" />
  </g>
</svg>
